<?xml version="1.0" standalone="no"?>
<!DOCTYPE svg PUBLIC "-//W3C//DTD SVG 1.1//EN" "http://www.w3.org/Graphics/SVG/1.1/DTD/svg11.dtd" >
<svg xmlns="http://www.w3.org/2000/svg">
<metadata>Generated by IcoMoon</metadata>
<defs>
<font id="icomoon" horiz-adv-x="1024">
<font-face units-per-em="1024" ascent="960" descent="-64" />
<missing-glyph horiz-adv-x="1024" />
<glyph unicode="&#x20;" horiz-adv-x="512" d="" />
<glyph unicode="&#xe900;" glyph-name="activity-log" d="M563.883 756.565h-6.144c-8.192 0-15.701-0.683-23.211-2.731-14.336-2.731-22.528-15.019-19.797-28.672 2.731-12.288 12.971-20.48 24.576-20.48 1.365 0 3.413 0 4.096 0 4.779 0.683 9.557 1.365 14.336 1.365h5.461c14.336 0 24.576 11.605 24.576 24.576 0.683 15.701-10.923 25.941-23.893 25.941v0zM486.741 710.144c-10.923 8.875-26.624 6.827-35.499-4.096-6.827-8.192-12.288-16.384-15.701-25.941-5.461-12.971-0.683-27.307 12.288-33.451 3.413-1.365 7.509-2.731 10.923-2.731 9.557 0 18.432 5.461 22.528 14.336 2.731 5.461 6.827 11.605 10.923 15.701 7.509 11.605 5.461 27.307-5.461 36.181v0zM548.181 537.429c-6.827 0.683-12.971 2.731-18.432 4.096-12.971 4.779-27.307-2.731-32.085-15.019s2.048-27.307 15.019-32.085c9.557-3.413 19.797-5.461 30.037-6.827 0.683 0 1.365 0 2.731 0 12.971 0 23.211 9.557 24.576 22.528 2.048 12.971-8.192 25.259-21.845 27.307v0zM571.392 283.477h-25.259c-14.336 0-24.576-11.605-24.576-24.576 0-13.653 11.605-24.576 24.576-24.576h24.576c14.336 0 24.576 11.605 24.576 24.576 0.683 12.971-10.24 24.576-23.893 24.576v0zM482.645 579.755c-3.413 5.461-5.461 11.605-7.509 17.749-4.096 12.971-17.749 20.48-31.403 16.384-14.336-4.096-20.48-17.749-16.384-31.403 3.413-9.557 6.827-19.115 12.288-27.989 4.779-8.192 12.971-12.971 21.845-12.971 4.096 0 8.192 0.683 12.288 3.413 11.605 8.192 16.384 23.211 8.875 34.816v0zM755.712 536.747h-24.576c-14.336 0-24.576-11.605-24.576-24.576 0-14.336 11.605-24.576 24.576-24.576h24.576c14.336 0 24.576 11.605 24.576 24.576 0.683 12.971-10.24 24.576-24.576 24.576v0zM911.36 261.632c-1.365 14.336-14.336 23.211-27.307 22.528-3.413 0-7.509-0.683-10.923-0.683h-11.605c-14.336 0-24.576-11.605-24.576-24.576 0-13.653 11.605-24.576 24.576-24.576h11.605c5.461 0 10.923 0 15.701 0.683 14.336 0.683 24.576 12.971 22.528 26.624v0zM781.653 283.477h-24.576c-14.336 0-24.576-11.605-24.576-24.576 0-13.653 11.605-24.576 24.576-24.576h24.576c14.336 0 24.576 11.605 24.576 24.576s-10.923 24.576-24.576 24.576v0zM860.843 536.747h-24.576c-14.336 0-24.576-11.605-24.576-24.576 0-14.336 11.605-24.576 24.576-24.576h24.576c14.336 0 24.576 11.605 24.576 24.576 1.365 12.971-10.24 24.576-24.576 24.576v0zM974.848 496.469c-7.509 6.827-15.019 12.971-23.893 17.749-12.288 7.509-27.307 3.413-34.816-8.875s-3.413-27.307 8.875-34.816c5.461-3.413 11.605-7.509 15.701-12.288 4.779-4.096 10.923-6.827 16.384-6.827s14.336 2.731 18.432 8.192c10.923 12.288 9.557 28.672-0.683 36.864v0zM990.549 329.899c-11.605 8.192-26.624 5.461-34.816-5.461-4.096-5.461-8.875-10.923-14.336-15.019-10.923-9.557-11.605-24.576-1.365-35.499 4.779-5.461 12.288-8.192 18.432-8.192 5.461 0 12.288 2.731 16.384 6.827 7.509 6.827 14.336 14.336 19.797 22.528 8.875 11.605 7.509 26.624-4.096 34.816v0zM669.013 756.565h-24.576c-14.336 0-24.576-11.605-24.576-24.576 0-14.336 11.605-24.576 24.576-24.576h24.576c14.336 0 24.576 11.605 24.576 24.576 0 14.336-10.923 24.576-24.576 24.576v0zM1021.952 414.549c-2.731 14.336-15.701 22.528-30.037 19.115-14.336-2.731-22.528-15.701-19.115-30.037 1.365-6.827 1.365-12.971 1.365-19.797 0-14.336 11.605-24.576 24.576-24.576v0c14.336 0 24.576 11.605 24.576 24.576 2.048 11.605 0 21.845-1.365 30.72v0zM676.523 283.477h-24.576c-14.336 0-24.576-11.605-24.576-24.576 0-13.653 11.605-24.576 24.576-24.576h24.576c14.336 0 24.576 11.605 24.576 24.576s-11.605 24.576-24.576 24.576v0zM651.264 536.747h-24.576c-14.336 0-24.576-11.605-24.576-24.576 0-14.336 11.605-24.576 24.576-24.576h24.576c14.336 0 24.576 11.605 24.576 24.576 0.683 12.971-10.923 24.576-24.576 24.576v0zM430.080 444.587h-81.92v47.104c0 24.576-19.797 45.056-45.056 45.056h-135.851c-24.576 0-45.056-19.797-45.056-45.056v-47.104h-81.92c-14.336 0-24.576-11.605-24.576-24.576v-86.699c0-14.336 4.779-27.989 14.336-38.912v-148.139c0-23.893 19.115-43.008 43.008-43.008h326.997c23.893 0 43.008 19.115 43.008 43.008v147.456c8.875 11.605 14.336 23.893 14.336 38.912v86.699c-1.365 14.336-12.288 25.259-27.307 25.259v0zM172.715 486.912h125.611v-42.325h-125.611v42.325zM405.504 332.629c0-4.096-2.731-6.827-3.413-8.192-1.365-1.365-4.096-3.413-8.192-3.413v0h-61.44c-14.336 0-24.576-11.605-24.576-24.576 0-14.336 11.605-24.576 24.576-24.576h58.709v-118.784h-313.344v118.784h60.757c14.336 0 24.576 11.605 24.576 24.576s-11.605 24.576-24.576 24.576h-62.805c-6.827 0-11.605 4.779-11.605 11.605v62.123h340.651v-62.123h0.683zM253.269 314.197c-4.779 4.779-11.605 7.509-17.749 7.509-6.827 0-12.971-2.731-17.749-7.509s-7.509-11.605-7.509-17.749 2.731-12.971 7.509-17.749c4.779-4.779 11.605-7.509 17.749-7.509 6.827 0 12.971 2.731 17.749 7.509 5.461 4.779 7.509 11.605 7.509 17.749s-2.731 12.971-7.509 17.749v0zM937.984 848.725h-142.677c-14.336 0-24.576-11.605-24.576-24.576v-191.147c0-14.336 11.605-24.576 24.576-24.576 13.653 0 24.576 11.605 24.576 24.576v49.152h117.419c14.336 0 24.576 11.605 24.576 24.576v116.736c1.365 14.336-10.24 25.259-23.893 25.259v0zM913.408 730.624h-92.843v67.584h92.843v-67.584z" />
<glyph unicode="&#xe901;" glyph-name="add-to-cart" d="M737.28 111.309c-43.418 0-79.053-35.635-79.053-79.053s35.635-79.053 79.053-79.053c43.418 0 79.053 35.635 79.053 79.053s-35.635 79.053-79.053 79.053v0zM776.602 32.666c0-22.118-17.613-39.731-39.731-39.731s-39.731 17.613-39.731 39.731c0 22.118 17.613 39.731 39.731 39.731 23.757-0.41 41.779-18.022 39.731-39.731v0zM460.8 111.309c-43.418 0-79.053-35.635-79.053-79.053s35.635-79.053 79.053-79.053c43.418 0 79.053 35.635 79.053 79.053s-35.635 79.053-79.053 79.053v0zM460.8-7.066c-22.118 0-39.731 17.613-39.731 39.731s17.613 39.731 39.731 39.731 39.731-17.613 39.731-39.731c0-22.118-17.613-39.731-39.731-39.731v0zM798.31 461.107c6.963 19.251 11.059 39.731 11.878 61.44 2.458 99.942-75.366 185.549-174.899 192.512-110.182 7.373-201.933-79.462-201.933-188.006 0-23.347 4.096-45.466 11.878-65.946h-119.194c-11.059 0-21.709 7.373-24.166 18.432l-63.078 215.45c-3.277 10.65-13.107 18.432-24.166 18.432h-165.478v-37.274h135.578c10.65 0 20.48-6.963 24.166-17.203l163.84-488.243c3.277-10.24 13.107-17.203 24.166-17.203h404.275c9.421 0 18.432 5.325 22.528 13.517l133.12 257.229c9.011 16.794-3.686 37.274-22.528 37.274 0.41-0.41-135.987-0.41-135.987-0.41zM622.182 675.738c82.33 0 148.685-66.355 148.685-148.685s-66.355-148.685-148.685-148.685-148.685 66.355-148.685 148.685c0 81.92 66.355 148.685 148.685 148.685v0zM783.155 191.59h-368.23c-5.734 0-10.24 3.277-12.288 8.602l-73.318 203.571c-3.277 8.602 2.867 17.613 12.288 17.613h124.518c33.587-49.971 91.341-82.739 156.058-82.739s122.061 32.768 156.058 82.739h116.736c9.83 0 16.384-10.65 11.878-19.661l-111.821-203.571c-2.458-3.686-7.373-6.554-11.878-6.554zM603.341 437.35h39.322v68.813h69.222v39.731h-69.222v70.451h-39.322v-70.451h-70.861v-39.731h71.27v-68.813z" />
<glyph unicode="&#xe902;" glyph-name="anon-avatar" d="M833.946 44.954c-3.277 3.277-7.373 4.915-11.878 4.915-4.096 0-9.011-1.638-11.878-4.915-3.277-3.277-4.915-7.373-4.915-11.878 0-4.096 1.638-9.011 4.915-11.878 3.277-3.277 7.373-4.915 11.878-4.915 4.096 0 9.011 1.638 11.878 4.915 3.277 3.277 4.915 7.373 4.915 11.878s-1.638 8.602-4.915 11.878v0zM512.819 878.080c-178.995 0-325.222-144.998-326.042-323.994l-93.798-219.136c-2.048-5.325-1.638-11.059 1.638-15.974s8.602-7.373 13.926-7.373h109.363v-79.053c0-55.296 44.646-99.942 99.942-99.942h56.934c17.613 0 31.949-14.336 31.949-31.949v-67.584c0-9.011 7.373-17.203 17.203-17.203 9.011 0 17.203 7.373 17.203 17.203v67.584c0 36.045-29.082 65.946-65.946 65.946h-56.934c-36.864 0-65.946 29.901-65.946 65.946v96.256c0 9.011-7.373 17.203-17.203 17.203h-100.762l85.197 198.656c1.229 2.048 1.638 4.096 1.638 6.554v1.638c0 160.973 131.072 292.045 292.045 292.045s292.045-131.072 292.045-292.045v-451.789c0-9.011 7.373-17.203 17.203-17.203s17.203 7.373 17.203 17.203v451.379c-0.819 179.405-147.046 325.632-326.861 325.632v0zM581.222 715.469h-1.229c-9.421 0.41-17.613-6.554-18.022-15.565s6.554-17.613 15.565-18.022h1.229c0.41 0 1.229 0 1.229 0 8.602 0 15.974 6.963 17.203 15.565 0 9.421-6.963 17.613-15.974 18.022v0zM717.619 577.843c-3.686 52.019-35.226 98.714-81.101 122.061-8.602 4.096-18.432 1.229-22.938-7.373-4.096-8.602-1.229-18.432 7.373-22.938 36.045-18.022 60.621-54.067 63.078-94.618 2.048-27.443-6.554-55.296-22.938-77.414-15.565-20.070-37.683-35.226-62.259-41.37-7.373-2.048-12.698-8.602-12.698-16.384v-67.584c0-9.011-7.373-17.203-17.203-17.203-9.011 0-17.203 7.373-17.203 17.203v72.909c0 20.89 14.336 38.093 34.406 43.008 39.322 9.011 65.946 44.646 63.078 85.197-2.458 39.731-35.226 72.090-74.957 74.957-22.938 1.638-44.646-5.734-61.030-21.709-16.384-15.565-26.214-36.864-26.214-59.392 0-9.011-7.373-17.203-17.203-17.203-9.011 0-17.203 7.373-17.203 17.203 0 31.949 13.107 62.259 36.864 83.968 10.65 9.421 22.118 17.613 35.226 22.118 8.602 3.686 12.698 13.107 9.011 21.709s-13.107 12.698-21.709 9.011c-16.384-6.963-31.949-16.384-45.875-29.082-29.901-28.262-47.104-67.584-47.104-108.544 0-27.443 22.938-50.381 50.381-50.381s50.381 22.938 50.381 50.381c0 13.107 5.325 25.395 14.746 34.406s22.118 13.926 35.635 12.698c23.347-1.638 42.598-20.89 44.237-44.237 1.638-23.757-13.926-44.646-36.864-49.971-36.045-7.782-61.030-39.322-61.030-75.776v-72.909c0-27.443 22.938-50.381 50.381-50.381s50.381 22.938 50.381 50.381v55.296c26.624 9.421 50.381 27.034 67.994 49.971 24.576 30.72 35.226 66.355 32.358 101.99v0zM569.344 298.906c-27.443 0-50.381-22.938-50.381-50.381s22.938-50.381 50.381-50.381c27.443 0 50.381 22.938 50.381 50.381 0.41 28.262-22.118 50.381-50.381 50.381v0zM569.344 232.141c-9.011 0-17.203 7.373-17.203 17.203 0 9.011 7.373 17.203 17.203 17.203 9.011 0 17.203-7.373 17.203-17.203s-7.373-17.203-17.203-17.203v0z" />
<glyph unicode="&#xe903;" glyph-name="apply_coupon" d="M307.2 396.8h34.133v-34.133h-34.133v34.133zM307.2 328.533h34.133v-34.133h-34.133v34.133zM307.2 260.267h34.133v-34.133h-34.133v34.133zM307.2 465.067h34.133v-34.133h-34.133v34.133zM307.2 533.333h34.133v-34.133h-34.133v34.133zM307.2 601.6h34.133v-34.133h-34.133v34.133zM307.2 669.867h34.133v-34.133h-34.133v34.133zM68.267 669.867h34.133v-34.133h-34.133v34.133zM921.6 669.867h34.133v-34.133h-34.133v34.133zM921.6 260.267h34.133v-34.133h-34.133v34.133zM68.267 260.267h34.133v-34.133h-34.133v34.133zM1006.933 533.333c9.425 0 17.067 7.642 17.067 17.067v170.667c0 9.425-7.642 17.067-17.067 17.067h-989.867c-9.425 0-17.067-7.642-17.067-17.067v-170.667c0-9.425 7.642-17.067 17.067-17.067 47.127 0 85.333-38.206 85.333-85.333s-38.206-85.333-85.333-85.333c-9.425 0-17.067-7.642-17.067-17.067v-170.667c0-9.425 7.642-17.067 17.067-17.067h989.867c9.425 0 17.067 7.642 17.067 17.067v170.667c0 9.425-7.642 17.067-17.067 17.067-47.127 0-85.333 38.206-85.333 85.333s38.206 85.333 85.333 85.333zM888.585 431.027c7.535-52.501 48.783-93.747 101.282-101.282v-137.745h-955.733v137.745c65.31 9.374 110.656 69.916 101.282 135.228-7.535 52.499-48.781 93.747-101.282 101.282v137.745h955.733v-137.745c-65.31-9.374-110.656-69.916-101.282-135.228zM512 618.667c-37.702 0-68.267-30.564-68.267-68.267s30.564-68.267 68.267-68.267c37.702 0 68.267 30.564 68.267 68.267s-30.564 68.267-68.267 68.267zM512 516.267c-18.852 0-34.133 15.281-34.133 34.133s15.281 34.133 34.133 34.133 34.133-15.281 34.133-34.133-15.281-34.133-34.133-34.133zM716.8 413.867c-37.702 0-68.267-30.564-68.267-68.267s30.564-68.267 68.267-68.267c37.702 0 68.267 30.564 68.267 68.267s-30.564 68.267-68.267 68.267zM716.8 311.467c-18.852 0-34.133 15.281-34.133 34.133s15.281 34.133 34.133 34.133 34.133-15.281 34.133-34.133-15.281-34.133-34.133-34.133zM465.8 323.575l273.061 273.061 24.136-24.136-273.061-273.061-24.136 24.136z" />
<glyph unicode="&#xe904;" glyph-name="attach" d="M994.66 578.998c-7.757 7.757-20.294 7.757-28.050 0l-541.449-541.449c-39.913-39.913-93.177-61.874-150.032-61.874-56.875 0-110.159 21.96-150.052 61.874s-61.874 93.177-61.874 150.052c0 56.855 21.96 110.139 61.874 150.032l541.429 541.469c57.47 57.45 147.691 53.939 209.863-8.193 62.151-62.151 65.682-152.393 8.213-209.863l-508.638-508.657c-28.427-28.427-74.728-28.447-103.215 0-28.447 28.467-28.447 74.768 0 103.215l344.56 344.56c7.757 7.757 7.757 20.294 0 28.050s-20.294 7.757-28.050 0l-344.56-344.54c-43.921-43.921-43.921-115.376 0-159.316 43.96-43.96 115.435-43.881 159.316 0l508.657 508.657c73.459 73.479 69.928 187.823-8.213 265.963-78.121 78.121-192.485 81.672-265.963 8.193l-541.469-541.469c-47.412-47.392-73.499-110.635-73.499-178.102s26.087-130.73 73.499-178.122c47.392-47.412 110.635-73.499 178.122-73.499 67.448 0 130.71 26.087 178.102 73.499l541.429 541.469c7.757 7.757 7.757 20.314 0 28.050z" />
<glyph unicode="&#xe905;" glyph-name="call" d="M750.387 86.733c-29.901 0-66.355 7.373-106.496 22.528-87.654 33.178-182.682 98.304-268.288 183.501-85.197 85.606-150.323 181.043-183.501 268.288-29.901 79.462-30.31 144.998-0.41 174.899 4.506 4.506 8.602 9.011 13.107 13.517 27.443 28.672 58.573 61.44 99.123 59.392 28.262-1.229 55.296-18.842 83.558-53.248 82.739-102.81 45.466-139.264 2.458-181.862l-7.782-7.373c-6.963-6.963-20.48-39.731 103.629-163.43 40.55-40.55 74.957-70.042 102.4-88.064 17.203-11.469 48.333-28.262 61.030-15.565l7.782 7.782c42.598 43.008 79.053 80.282 181.862-2.458 34.816-27.853 52.429-55.296 53.248-83.558 1.638-40.96-30.72-71.68-59.392-99.123-4.915-4.506-9.421-9.011-13.517-13.107-15.155-14.746-38.912-22.118-68.813-22.118zM301.056 785.101c-29.082 0-55.296-27.443-78.643-52.019-4.506-4.915-9.011-9.83-13.517-13.926-22.118-22.118-20.070-80.691 5.734-149.094 31.949-84.378 95.027-176.538 178.176-259.686s175.309-146.227 259.686-178.176c68.403-25.805 126.976-27.853 149.094-5.734 4.506 4.506 9.011 9.011 13.926 13.517 24.986 23.757 53.248 50.381 52.019 80.282-0.819 20.48-15.565 42.598-44.237 65.536-85.606 68.813-109.363 44.646-149.094 4.096l-7.782-7.782c-18.842-18.842-49.562-14.746-91.341 12.288-29.082 18.842-64.717 49.562-106.496 91.341-102.81 102.81-135.578 165.888-103.629 197.837l7.782 7.782c40.141 39.731 64.717 63.488-4.096 149.094-22.938 28.672-45.056 43.418-65.536 44.237-0.819 0.41-1.229 0.41-2.048 0.41z" />
<glyph unicode="&#xe906;" glyph-name="close-popup" horiz-adv-x="1022" d="M200.2 38.8l719.6 719.6c27.4 27.4 27.4 71.2 0 98.2-27.4 27.4-71.2 27.4-98.2 0l-719.4-719.2c-27.4-27.4-27.4-71.2 0-98.2 26.8-27.2 70.8-27.2 98-0.4zM919.8 38.8c27.4 27.4 27.4 71.2 0 98.2l-719.4 719.8c-27.4 27.4-71.2 27.4-98.2 0-27.4-27.4-27.4-71.2 0-98.2l720-719.6c26.8-27 70.8-27 97.6-0.2z" />
<glyph unicode="&#xe907;" glyph-name="customer-profile" d="M205.483 588.629c-2.731 2.731-7.509 4.779-11.605 4.779s-8.875-2.048-11.605-4.779-4.779-7.509-4.779-11.605c0-4.096 2.048-8.875 4.779-11.605s7.509-4.779 11.605-4.779 8.875 2.048 11.605 4.779c2.731 2.731 4.779 7.509 4.779 11.605 0 4.779-1.365 8.875-4.779 11.605v0zM824.661 868.523h-332.459c-8.875 0-16.384-7.509-16.384-16.384s7.509-16.384 16.384-16.384h332.459c8.875 0 16.384-7.509 16.384-16.384v-742.059c0-8.875-7.509-16.384-16.384-16.384h-598.016c-8.875 0-16.384 7.509-16.384 16.384v439.637c0 8.875-7.509 16.384-16.384 16.384s-16.384-7.509-16.384-16.384v-439.637c0-27.307 21.845-49.152 49.152-49.152h598.016c27.307 0 49.152 21.845 49.152 49.152v741.376c0 27.307-21.845 49.835-49.152 49.835v0zM525.653 802.304c-10.923 0-22.528-0.683-33.451-2.731-8.875-1.365-15.019-9.557-13.653-18.432s9.557-15.019 18.432-13.653c9.557 1.365 19.115 2.048 28.672 2.048 102.4 0 185.685-83.285 185.685-185.685 0-45.739-16.384-87.381-43.691-119.467-12.288 20.48-28.672 38.912-48.469 52.565-11.605 8.192-23.893 14.336-37.547 19.115 15.019 14.336 24.576 34.816 24.576 57.344v15.701c0 44.373-36.181 80.555-80.555 80.555s-80.555-36.181-80.555-80.555v-15.701c0-22.528 9.557-43.008 24.576-57.344-12.971-4.779-25.941-10.923-37.547-19.115-19.797-13.653-36.864-32.085-48.469-52.565-20.48 24.576-35.499 54.613-40.96 88.747-1.365 8.875-10.24 15.019-19.115 13.653s-15.019-10.24-13.653-19.115c8.192-50.517 34.816-96.256 73.728-129.707 39.595-33.451 90.112-52.565 141.995-52.565 120.149 0 218.453 98.304 218.453 218.453s-97.621 218.453-218.453 218.453v0zM478.549 609.792c0 25.941 21.163 47.787 47.787 47.787 25.941 0 47.787-21.163 47.787-47.787v-15.701c0-25.941-21.163-47.787-47.787-47.787-25.941 0-47.787 21.163-47.787 47.787v15.701zM525.653 398.165c-44.373 0-85.333 15.701-117.419 41.643 21.845 45.056 66.901 73.045 117.419 73.045s95.573-27.989 117.419-73.045c-31.403-25.259-72.363-41.643-117.419-41.643v0zM677.205 214.528h-233.472c-8.875 0-16.384-7.509-16.384-16.384s7.509-16.384 16.384-16.384h233.472c8.875 0 16.384 7.509 16.384 16.384s-6.827 16.384-16.384 16.384v0zM385.707 301.909c-2.731 2.731-7.509 4.779-11.605 4.779s-8.875-2.048-11.605-4.779c-2.731-2.731-4.779-7.509-4.779-11.605s2.048-8.875 4.779-11.605c2.731-2.731 7.509-4.779 11.605-4.779s8.875 2.048 11.605 4.779c2.731 2.731 4.779 7.509 4.779 11.605 0 4.779-1.365 8.875-4.779 11.605v0zM385.707 210.432c-2.731 2.731-7.509 4.779-11.605 4.779s-8.875-2.048-11.605-4.779c-2.731-2.731-4.779-7.509-4.779-11.605s2.048-8.875 4.779-11.605c2.731-2.731 7.509-4.779 11.605-4.779s8.875 2.048 11.605 4.779c2.731 2.731 4.779 7.509 4.779 11.605s-1.365 8.192-4.779 11.605v0zM677.205 306.005h-233.472c-8.875 0-16.384-7.509-16.384-16.384s7.509-16.384 16.384-16.384h233.472c8.875 0 16.384 7.509 16.384 16.384s-6.827 16.384-16.384 16.384v0zM370.688 772.949c-6.144 6.144-17.067 6.144-23.211 0l-53.248-53.248-18.432 18.432c-6.144 6.144-17.067 6.144-23.211 0s-6.144-17.067 0-23.211l30.037-30.037c3.413-3.413 7.509-4.779 11.605-4.779s8.192 1.365 11.605 4.779l64.853 64.853c6.827 6.827 6.827 17.067 0 23.211v0zM312.661 868.523c-74.411 0-134.485-60.075-134.485-134.485s60.075-134.485 134.485-134.485c74.411 0 134.485 60.075 134.485 134.485s-60.757 134.485-134.485 134.485v0zM312.661 631.637c-55.979 0-101.717 45.739-101.717 101.717s45.739 101.717 101.717 101.717c55.979 0 101.717-45.739 101.717-101.717s-45.739-101.717-101.717-101.717v0z" />
<glyph unicode="&#xe908;" glyph-name="default-chat" d="M657.884 245.653c-22.739-3.321-45.733-5.11-68.727-5.11-82.267 0-158.403 20.439-220.232 55.441 54.675-36.024 116.758-59.273 181.653-68.727l30.148-4.343c3.321-0.511 6.898-1.277 10.22-1.533 5.621-1.022 8.942-6.132 8.431-11.242-0.255-2.044-1.022-3.832-2.555-5.365-55.697-59.529-146.14-96.064-243.481-96.064-23.505 0-46.754 2.044-69.749 6.387-10.986 1.788-22.994-1.533-31.425-9.198l-77.669-71.026c-1.277-1.277-3.321-0.255-3.321 1.533v100.152c0 12.263-5.876 23.76-16.096 30.403-64.128 43.433-100.407 105.006-100.152 169.134 0 74.603 50.076 145.118 130.299 187.529 2.555 1.277 5.11 2.555 7.665 3.832 5.876 2.81 12.519-0.511 14.052-6.643 0.255-2.299 1.022-4.088 1.277-6.387 4.854-20.184 11.497-39.856 19.673-58.251-7.409 22.483-11.497 45.988-11.497 70.004 0 15.84 1.788 31.17 4.854 46.244-1.022 0-2.299-0.255-3.321-0.511l-6.898-2.555c-8.176-3.066-16.351-6.387-24.016-10.22-99.896-46.244-163.257-131.577-163.257-223.042-0.255-74.092 40.878-145.373 113.693-194.683 1.788-1.022 2.81-2.81 2.81-4.854v-152.016c0-8.687 10.22-13.285 16.607-7.409l115.737 106.539c1.533 1.277 3.321 1.788 5.11 1.533 25.038-4.343 50.076-6.898 75.369-6.898 120.591 0 232.24 52.375 289.98 134.643 3.321 4.599 6.387 9.453 9.198 14.307l4.854 8.431c2.555 3.321 2.299 7.154 0.766 9.964zM587.88 842.475c-207.968 0-379.657-124.423-400.607-283.593-1.533-10.731-2.044-21.717-2.044-32.703 0-0.766 0-1.788 0-2.81 1.788-172.966 182.164-313.485 403.162-313.485 3.577 0 7.154 0 10.986 0 14.818 0.255 29.381 1.277 44.2 2.81 12.008 1.277 23.76 3.066 35.513 5.11h2.555c1.533 0 3.066-0.766 4.088-1.533l146.906-134.132c6.898-6.132 17.629-1.277 17.629 7.665v192.639c0 1.788 1.022 3.832 2.81 4.854 87.633 61.317 138.22 148.184 138.22 238.882 0 174.499-181.142 316.295-403.417 316.295zM835.705 312.846c-10.22-6.643-16.351-18.14-16.351-30.403v-137.709c0-3.321-4.088-4.854-6.387-2.81l-106.283 97.341c-6.898 6.132-15.84 9.453-24.527 9.453h-5.11l-1.277-0.255c-5.876-1.022-11.752-2.044-17.884-3.066-22.739-3.321-45.733-5.11-68.727-5.11-82.267 0-158.403 20.439-220.232 55.441-68.471 38.834-119.313 95.042-140.774 160.192-7.409 22.483-11.497 45.988-11.497 70.004 0 15.84 1.788 31.17 4.854 46.244 28.87 135.409 182.419 239.138 367.138 239.138 205.413 0 372.503-128 372.503-285.381 0-80.224-45.988-158.148-125.445-213.078z" />
<glyph unicode="&#xe909;" glyph-name="default-tab" d="M683.742 205.304l-6.047-21.77-54.627-194.318-0.202-0.806c-0.403-2.016-2.016-3.427-3.024-4.031-2.016-1.209-4.435-1.613-6.652-1.209l-506.557 142.312c-4.636 1.613-7.257 6.047-6.249 10.885l176.176 627.502c1.613 4.636 6.047 7.257 10.885 6.249l47.169-13.304 21.77-6.047v22.576l-21.77 6.047-41.524 11.691-0.403 0.202c-16.126 3.83-31.849-5.241-36.888-20.964l-176.378-628.309-0.202-0.403c-3.83-16.126 5.241-31.849 20.964-36.888l507.565-142.513c2.419-0.605 4.838-1.008 7.257-1.008 5.644 0 11.288 1.613 16.328 4.636 6.652 4.031 11.288 10.482 12.901 17.739l56.038 199.962 6.047 21.77h-22.576zM902.047 917.669h-526.513c-22.576 0-41.121-18.545-41.121-41.121v-651.893c0-22.576 18.545-41.121 41.121-41.121h525.506c22.173 0 40.113 16.932 41.726 39.307v653.909c0.403 22.375-17.94 40.92-40.718 40.92zM921.197 224.655c-0.806-10.28-8.668-19.351-20.157-19.351h-525.506c-10.28 0-19.351 8.668-19.351 19.351v651.893c0 10.28 8.668 19.351 19.351 19.351h526.312c10.28 0 19.351-8.668 19.351-19.351v-651.893z" />
<glyph unicode="&#xe90a;" glyph-name="delete" d="M1024 460.6l-429.2 429.2-549.4-549.4c-29-29-45-67.6-45-108.8s16-79.6 45-108.8l126.8-126.8h-172v-60h1023v60h-463.8l464.6 464.6zM594.8 805l344.2-344.4-358-358-344.2 344.4 358 358zM256.8-4l-169.2 169.2c-17.8 17.8-27.4 41.2-27.4 66.4s9.8 48.6 27.4 66.4l106.4 106.6 344.4-344.4-64.2-64.2h-217.4z" />
<glyph unicode="&#xe90b;" glyph-name="digital-profile" d="M525.312 266.752c-3.072 3.072-7.168 5.12-12.288 5.12s-9.216-1.024-12.288-5.12c-3.072-3.072-5.12-7.168-5.12-12.288s1.024-9.216 5.12-12.288c3.072-3.072 7.168-5.12 12.288-5.12s9.216 1.024 12.288 5.12c3.072 3.072 5.12 7.168 5.12 12.288s-2.048 9.216-5.12 12.288v0zM857.088 783.872h-101.376v58.368c0 18.432-15.36 33.792-33.792 33.792h-417.792c-18.432 0-33.792-15.36-33.792-33.792v-58.368h-101.376c-25.6 0-47.104-21.504-47.104-47.104v-506.88c0-25.6 21.504-47.104 47.104-47.104h260.096v-78.848c-43.008-4.096-76.8-40.96-76.8-84.992 0-9.216 7.168-17.408 17.408-17.408h285.696c9.216 0 17.408 7.168 17.408 17.408 0 45.056-33.792 80.896-76.8 84.992v79.872h260.096c25.6 0 47.104 21.504 47.104 47.104v505.856c1.024 26.624-20.48 47.104-46.080 47.104v0zM155.648 736.768c0 7.168 6.144 13.312 13.312 13.312h101.376v-114.688c0-9.216 7.168-17.408 17.408-17.408s17.408 7.168 17.408 17.408v207.872h417.792v-516.096h-416.768v185.344c0 9.216-7.168 17.408-17.408 17.408-9.216 0-17.408-7.168-17.408-17.408v-185.344h-114.688v409.6zM635.904 35.328h-246.784c7.168 20.48 25.6 33.792 48.128 33.792h149.504c23.552 1.024 41.984-13.312 49.152-33.792v0zM462.848 103.936v78.848h99.328v-78.848h-99.328zM870.4 229.888c0-7.168-6.144-13.312-13.312-13.312h-688.128c-7.168 0-13.312 6.144-13.312 13.312v61.44h714.752v-61.44zM870.4 326.144h-114.688v423.936h101.376c7.168 0 13.312-6.144 13.312-13.312v-410.624zM512 808.448c-69.632 0-125.952-56.32-125.952-125.952 0-35.84 15.36-68.608 38.912-91.136 1.024-1.024 1.024-1.024 2.048-2.048 22.528-20.48 52.224-33.792 84.992-33.792s62.464 12.288 84.992 33.792c1.024 1.024 1.024 1.024 2.048 2.048 24.576 22.528 38.912 55.296 38.912 91.136 1.024 68.608-56.32 125.952-125.952 125.952v0zM512 589.312c-20.48 0-37.888 6.144-52.224 17.408 11.264 17.408 30.72 28.672 52.224 28.672s41.984-11.264 52.224-28.672c-13.312-11.264-31.744-17.408-52.224-17.408v0zM495.616 686.592v9.216c0 9.216 8.192 17.408 17.408 17.408s17.408-8.192 17.408-17.408v-9.216c0-9.216-8.192-17.408-17.408-17.408-10.24 1.024-17.408 8.192-17.408 17.408v0zM589.824 631.296c-9.216 12.288-20.48 21.504-33.792 28.672 5.12 8.192 8.192 17.408 8.192 27.648v9.216c0 28.672-22.528 52.224-52.224 52.224-28.672 0-52.224-22.528-52.224-52.224v-9.216c0-10.24 3.072-20.48 8.192-27.648-13.312-7.168-24.576-16.384-33.792-28.672-9.216 15.36-15.36 31.744-15.36 50.176 0 51.2 41.984 92.16 92.16 92.16 51.2 0 92.16-41.984 92.16-92.16 2.048-18.432-4.096-35.84-13.312-50.176v0zM299.008 589.312c-3.072 3.072-7.168 5.12-12.288 5.12-4.096 0-9.216-1.024-12.288-5.12-3.072-3.072-5.12-7.168-5.12-12.288s1.024-9.216 5.12-12.288c3.072-3.072 7.168-5.12 12.288-5.12 4.096 0 9.216 1.024 12.288 5.12 3.072 3.072 5.12 7.168 5.12 12.288s-2.048 9.216-5.12 12.288v0zM618.496 514.56h-198.656c-9.216 0-17.408-7.168-17.408-17.408s7.168-17.408 17.408-17.408h198.656c9.216 0 17.408 7.168 17.408 17.408 0 9.216-8.192 17.408-17.408 17.408v0zM630.784 433.664c-3.072 3.072-7.168 5.12-12.288 5.12-4.096 0-9.216-1.024-12.288-5.12-3.072-3.072-5.12-7.168-5.12-12.288 0-4.096 1.024-9.216 5.12-12.288 3.072-3.072 7.168-5.12 12.288-5.12 4.096 0 9.216 1.024 12.288 5.12 3.072 3.072 5.12 7.168 5.12 12.288s-2.048 9.216-5.12 12.288v0zM552.96 438.784h-133.12c-9.216 0-17.408-7.168-17.408-17.408 0-9.216 7.168-17.408 17.408-17.408h133.12c9.216 0 17.408 7.168 17.408 17.408s-7.168 17.408-17.408 17.408v0z" />
<glyph unicode="&#xe90c;" glyph-name="download" d="M827.733 533.333c-29.867 145.067-157.867 256-315.733 256-123.733 0-230.4-68.267-281.6-170.667-132.267-17.067-230.4-123.733-230.4-256 0-140.8 115.2-256 256-256h554.667c119.467 0 213.333 93.867 213.333 213.333 0 110.933-89.6 204.8-196.267 213.333zM725.333 405.333l-213.333-213.333-213.333 213.333h128v170.667h170.667v-170.667h128z" />
<glyph unicode="&#xe90d;" glyph-name="edit" d="M946.208 52.688h-868.416c-18.257 0-32.546-15.082-32.546-32.546s15.082-32.546 32.546-32.546h869.209c18.257 0 32.546 15.082 32.546 32.546s-15.082 32.546-33.34 32.546zM45.247 340.837l-0.794-154.791c0-8.732 3.175-17.464 9.526-23.814s14.288-9.526 23.020-9.526l153.997 0.794c8.732 0 16.67 3.175 23.020 9.526l531.845 531.845c12.701 12.701 12.701 33.34 0 46.834l-152.409 153.997c-12.701 12.701-33.34 12.701-46.834 0l-106.369-107.163-425.476-424.682c-5.557-6.35-9.526-14.288-9.526-23.020zM610.431 825.848l107.163-107.163-60.329-60.329-107.163 107.163 60.329 60.329zM111.132 326.549l392.136 392.136 107.163-107.163-392.136-391.343-107.957-0.794 0.794 107.163z" />
<glyph unicode="&#xe90e;" glyph-name="facebook" d="M559.514 36.762h-134.758c-22.528 0-40.55 18.022-40.55 40.55v303.514h-78.643c-22.528 0-40.55 18.022-40.55 40.55v130.253c0 22.528 18.022 40.55 40.55 40.55h78.234v65.946c0 64.717 20.070 119.603 58.573 158.925s92.57 60.621 155.648 60.621h102.81c22.528 0 40.55-18.022 40.55-40.55v-120.832c0-22.528-18.022-40.55-40.55-40.55h-68.813c-20.89 0-26.624-4.506-27.443-5.325-2.048-2.048-4.096-8.192-4.096-24.986v-51.2h95.846c7.373 0 14.336-2.048 20.070-4.915 12.698-7.373 20.89-20.89 20.89-35.635v-130.253c0-22.528-18.022-40.55-40.55-40.55h-95.846v-303.514c-0.819-24.166-18.842-42.598-41.37-42.598v0zM433.357 86.323h117.555v317.030c0 15.155 12.288 27.443 27.443 27.443h109.773v113.050h-109.773c-15.155 0-27.443 12.288-27.443 27.443v73.318c0 19.251 2.048 40.96 16.794 57.754 17.613 20.070 45.056 22.118 64.717 22.118h60.621v103.629h-93.798c-101.99 0-165.069-65.126-165.069-170.394v-86.835c0-15.155-12.288-27.443-27.443-27.443h-92.57v-113.050h92.16c15.155 0 27.443-12.288 27.443-27.443v-316.621zM701.235 828.109v0 0z" />
<glyph unicode="&#xe90f;" glyph-name="notifications" d="M921.6 143.605v25.65c0 40.88-33.265 73.944-73.944 73.944h-2.405c-82.16 84.966-130.655 195.582-137.468 313.412 71.54 10.42 126.447 63.724 141.877 130.455 1.804 8.016-3.206 16.232-11.222 18.035-8.216 1.804-16.232-3.206-18.035-11.222-14.829-64.526-71.74-108.813-137.068-108.813-77.551 0-140.675 63.123-140.675 140.675 0 76.95 62.522 140.675 140.675 140.675 65.929 0 122.239-44.687 137.068-108.813 1.804-8.016 10.020-13.226 18.035-11.222 8.016 1.804 13.226 10.020 11.222 18.035-17.634 76.349-86.168 132.258-166.325 132.258-48.895 0-92.781-20.64-124.042-53.505-13.025 5.811-26.452 10.42-40.279 13.627v57.913c0 25.249-20.44 45.689-45.689 45.689h-22.644c-25.249 0-45.689-20.44-45.689-45.689v-57.713c-105.807-25.049-187.967-120.636-187.967-238.265v-33.465c0-128.651-49.096-249.688-138.47-341.868h-2.405c-40.88 0-73.944-33.265-73.944-73.944v-25.65c0-40.88 33.265-73.944 73.944-73.944h231.051c7.414-63.123 52.903-116.427 115.225-132.859 8.016-2.004 16.232 2.605 18.436 10.821 2.204 8.016-2.605 16.232-10.821 18.436-49.096 12.825-85.166 54.306-92.38 103.602h248.686c-7.214-49.897-43.886-91.378-93.583-104.003-8.016-2.004-13.025-10.22-11.022-18.236 1.804-6.813 7.815-11.422 14.629-11.422 1.202 0 2.405 0.2 3.607 0.401 62.923 15.831 109.213 69.536 116.427 133.26h231.051c40.88-0.2 74.145 33.065 74.145 73.744zM434.849 914.311c0 8.617 7.014 15.43 15.43 15.43h22.644c8.617 0 15.43-7.014 15.43-15.43v-52.503c-9.018 1.002-18.035 1.403-26.852 1.403s-17.835-0.401-26.852-1.403v52.503zM119.433 243.4c79.956 91.98 127.649 212.615 127.649 341.868v33.265c0 120.034 98.192 216.623 218.427 214.619 25.249-0.401 50.699-5.411 74.145-14.829-17.234-26.652-27.253-59.115-27.253-92.781 0-92.38 73.744-167.728 165.123-170.733 6.613-115.626 51.1-224.639 126.647-311.609h-684.737zM891.341 143.605c0-24.247-19.638-43.886-43.886-43.886-16.632 0-757.88 0-771.507 0-24.247 0-43.886 19.638-43.886 43.886v25.65c0 24.247 19.638 43.886 43.886 43.886h771.507c24.247 0 43.886-19.638 43.886-43.886v-25.65zM682.934 638.171c8.416 0 15.029 6.813 15.029 15.029v128.852c0 8.416-6.813 15.029-15.029 15.029h-16.632c-8.416 0-15.029-6.813-15.029-15.029s6.813-15.029 15.029-15.029h1.603v-113.822c0-8.216 6.613-15.029 15.029-15.029z" />
<glyph unicode="&#xe910;" glyph-name="oometrics-dashicon" d="M724.992 638.464h-404.48c-105.472 0-190.464-84.992-190.464-190.464v-172.032c0-10.24 8.192-18.432 18.432-18.432h577.536c105.472 0 190.464 84.992 190.464 190.464v0c-2.048 104.448-86.016 190.464-191.488 190.464zM714.752 606.72c86.016 0 156.672-70.656 156.672-156.672s-70.656-156.672-156.672-156.672-156.672 69.632-156.672 156.672 69.632 156.672 156.672 156.672zM323.584 606.72c86.016 0 156.672-70.656 156.672-156.672s-70.656-155.648-156.672-155.648-156.672 69.632-156.672 156.672 69.632 155.648 156.672 155.648zM323.584 474.624c14.336 0 26.624-12.288 26.624-26.624s-12.288-26.624-26.624-26.624-26.624 13.312-26.624 27.648 11.264 25.6 26.624 25.6zM714.752 476.672c14.336 0 26.624-12.288 26.624-26.624s-12.288-26.624-26.624-26.624-26.624 12.288-26.624 26.624 11.264 26.624 26.624 26.624z" />
<glyph unicode="&#xe911;" glyph-name="open_popup" d="M1024 730.483h-70.621v70.621h-70.621v70.621h-741.517v-70.621h-70.621v-70.621h-70.621v-564.966h70.621v-70.621h70.621v-70.621h741.517v70.621h70.621v70.621h70.621v564.966zM35.31 200.828v494.345h35.31v-494.345h-35.31zM105.931 130.207v635.586h35.31v-635.586h-35.31zM847.448 59.586h-670.897v776.828h670.897v-776.828zM918.069 130.207h-35.31v635.586h35.31v-635.586zM988.69 200.828h-35.31v494.345h35.31v-494.345z" />
<glyph unicode="&#xe912;" glyph-name="refresh" d="M512.209 138.083c40.751 0 80.457 7.941 118.282 23.615 76.487 31.556 135.837 91.115 167.602 167.602s31.765 160.496 0 236.983c-48.065 116.193-160.496 191.216-286.302 191.216-40.751 0-80.457-7.941-118.282-23.615-157.78-65.202-233.012-246.805-167.602-404.584 48.065-115.984 160.496-191.216 286.302-191.216zM409.391 695.641c32.81 13.584 67.291 20.48 102.4 20.48 108.878 0 206.263-64.993 248.059-165.721 27.376-66.247 27.376-139.18 0-205.218-27.376-66.247-78.994-117.656-145.241-145.241-32.81-13.584-67.291-20.48-102.4-20.48-108.878 0-206.263 64.993-248.059 165.721-56.633 136.673 8.568 294.034 145.241 350.459zM30.093 274.547c3.135-8.359 11.076-13.793 19.435-13.793 2.299 0 4.598 0.418 6.896 1.254 10.658 3.762 16.3 15.673 12.539 26.54-61.231 171.154-20.48 358.191 106.58 488.176 87.771 89.861 205.427 140.225 331.024 141.688 125.388 1.463 244.297-45.976 334.158-133.747l-52.872-0.627c-11.494-0.209-20.48-9.404-20.48-20.898 0.209-11.285 9.404-20.48 20.689-20.48h0.209l102.818 1.254c5.433 0 10.658 2.299 14.629 6.269 3.762 3.971 5.851 9.195 5.851 14.629l-1.254 102.818c-0.209 11.494-9.404 20.898-20.898 20.48-11.494-0.209-20.48-9.404-20.48-20.898l0.627-52.872c-97.802 95.504-226.743 147.122-363.416 145.659-136.673-1.881-264.777-56.424-360.281-154.227-68.336-70.008-115.148-157.571-135.001-252.865-19.435-92.996-12.748-189.127 19.226-278.361zM848.457 119.066c-181.185-185.574-479.608-188.918-665.182-7.941l52.872 0.627c11.494 0.209 20.48 9.404 20.48 20.898-0.209 11.285-9.404 20.48-20.689 20.48h-0.209l-102.818-1.254c-11.494-0.209-20.48-9.404-20.48-20.898l1.254-102.818c0.209-11.285 9.404-20.48 20.689-20.48h0.209c11.494 0.209 20.48 9.404 20.48 20.898l-0.627 52.872c99.474-96.967 228.415-145.45 357.564-145.45 133.12 0 266.031 51.409 366.132 153.809 68.336 70.008 115.148 157.571 135.001 252.865 19.435 92.787 12.748 189.127-19.226 278.152-3.762 10.658-15.673 16.3-26.54 12.539-10.658-3.762-16.3-15.673-12.539-26.54 61.44-170.736 20.689-357.773-106.371-487.758z" />
<glyph unicode="&#xe913;" glyph-name="sale_price" d="M955.91 434.737c-4.12 8.43-4.12 18.098 0 26.526l38.192 78.13c21.264 43.502 4.416 95.351-38.356 118.045l-76.82 40.76c-8.288 4.396-13.97 12.22-15.592 21.458l-15.024 85.657c-8.366 47.692-52.482 79.74-100.415 72.958l-86.105-12.18c-9.294-1.312-18.484 1.676-25.226 8.198l-62.502 60.464c-34.802 33.668-89.321 33.67-124.121 0l-62.504-60.47c-6.744-6.524-15.934-9.506-25.226-8.198l-86.105 12.18c-47.95 6.786-92.049-25.266-100.415-72.958l-15.024-85.653c-1.622-9.24-7.304-17.062-15.59-21.46l-76.82-40.76c-42.772-22.692-59.62-74.546-38.356-118.047l38.19-78.128c4.12-8.43 4.12-18.098 0-26.526l-38.192-78.128c-21.264-43.502-4.416-95.351 38.356-118.045l76.82-40.76c8.288-4.396 13.97-12.22 15.592-21.458l15.024-85.657c7.616-43.416 44.844-73.864 87.629-73.86 4.214 0 8.49 0.296 12.788 0.904l86.105 12.18c9.286 1.318 18.482-1.676 25.226-8.198l62.502-60.464c17.404-16.836 39.728-25.252 62.060-25.25 22.326 0.002 44.664 8.418 62.060 25.25l62.504 60.464c6.744 6.522 15.936 9.502 25.226 8.198l86.105-12.18c47.956-6.784 92.049 25.266 100.415 72.958l15.026 85.653c1.622 9.24 7.304 17.062 15.59 21.46l76.82 40.76c42.772 22.692 59.62 74.546 38.356 118.047l-38.192 78.13zM928.065 290.734l-76.82-40.76c-24.492-12.998-41.29-36.114-46.080-63.426l-15.024-85.655c-2.83-16.136-17.748-26.974-33.974-24.684l-86.105 12.18c-27.46 3.89-54.632-4.948-74.562-24.226l-62.504-60.462c-11.772-11.388-30.218-11.388-41.994 0l-62.502 60.464c-16.844 16.294-38.864 25.124-61.852 25.124-4.212 0-8.458-0.296-12.71-0.898l-86.105-12.18c-16.212-2.292-31.142 8.548-33.974 24.684l-15.026 85.657c-4.792 27.312-21.588 50.43-46.082 63.424l-76.82 40.76c-14.472 7.678-20.172 25.22-12.978 39.938l38.192 78.13c12.176 24.912 12.176 53.484 0 78.396l-38.192 78.13c-7.194 14.718-1.494 32.26 12.978 39.938l76.82 40.76c24.492 12.998 41.29 36.114 46.080 63.426l15.024 85.655c2.832 16.136 17.748 26.976 33.974 24.684l86.105-12.18c27.45-3.886 54.632 4.948 74.562 24.226l62.504 60.464c11.772 11.388 30.218 11.388 41.994 0l62.502-60.464c19.93-19.28 47.108-28.112 74.562-24.226l86.105 12.18c16.214 2.294 31.144-8.548 33.974-24.684l15.024-85.657c4.792-27.312 21.588-50.43 46.082-63.424l76.82-40.76c14.472-7.678 20.172-25.22 12.978-39.938l-38.192-78.128c-12.176-24.91-12.176-53.486 0-78.396l38.192-78.128c7.196-14.722 1.496-32.266-12.976-39.944zM727.768 663.77c-11.53 11.532-30.23 11.532-41.762 0l-389.776-389.778c-11.532-11.532-11.532-30.23 0-41.762 5.766-5.766 13.324-8.65 20.88-8.65s15.116 2.882 20.88 8.65l389.776 389.776c11.536 11.534 11.536 30.23 0.002 41.764zM393.88 713.769c-59.704 0-108.277-48.574-108.277-108.277s48.574-108.277 108.277-108.277 108.277 48.574 108.277 108.277-48.574 108.277-108.277 108.277zM393.88 556.276c-27.138 0-49.216 22.078-49.216 49.218 0 27.138 22.078 49.216 49.216 49.216s49.218-22.078 49.218-49.216c-0.002-27.14-22.080-49.218-49.218-49.218zM630.118 398.783c-59.704 0-108.277-48.574-108.277-108.277s48.574-108.277 108.277-108.277c59.704 0 108.277 48.574 108.277 108.277s-48.574 108.277-108.277 108.277zM630.118 241.29c-27.138 0-49.218 22.078-49.218 49.216s22.078 49.216 49.218 49.216c27.138 0 49.216-22.078 49.216-49.216s-22.078-49.216-49.216-49.216z" />
<glyph unicode="&#xe914;" glyph-name="seen" d="M651.264 583.168l-366.592-350.208-196.608 196.608c-14.336 14.336-38.912 14.336-53.248 0s-14.336-38.912 0-53.248l223.232-223.232c6.144-6.144 18.432-12.288 26.624-12.288s20.48 2.048 26.624 12.288l393.216 376.832c6.144 6.144 12.288 18.432 12.288 26.624s-2.048 20.48-12.288 26.624c-14.336 14.336-38.912 14.336-53.248 0zM937.984 583.168l-366.592-350.208-196.608 196.608c-14.336 14.336-38.912 14.336-53.248 0s-14.336-38.912 0-53.248l221.184-223.232c6.144-6.144 18.432-12.288 28.672-12.288s20.48 2.048 26.624 12.288l393.216 376.832c6.144 6.144 12.288 18.432 12.288 26.624s-2.048 20.48-12.288 26.624c-14.336 14.336-38.912 14.336-53.248 0z" />
<glyph unicode="&#xe915;" glyph-name="sent" d="M880.64 687.616l-454.656-432.128-243.712 243.712c-18.432 18.432-47.104 18.432-65.536 0s-18.432-47.104 0-65.536l276.48-276.48c8.192-8.192 22.528-14.336 32.768-14.336s26.624 4.096 32.768 14.336l487.424 464.896c8.192 8.192 14.336 22.528 14.336 32.768s-4.096 26.624-14.336 32.768c-16.384 18.432-47.104 18.432-65.536 0z" />
<glyph unicode="&#xe916;" glyph-name="session-push" d="M745.472 576c0 0 27.648-7.168 59.392-32.768 43.008-34.816 72.704-83.968 89.088-146.432 2.048-7.168 9.216-12.288 17.408-10.24 7.168 2.048 12.288 9.216 10.24 17.408-22.528 86.016-66.56 135.168-99.328 161.792-36.864 28.672-67.584 36.864-68.608 37.888-7.168 2.048-15.36-3.072-17.408-10.24-3.072-7.168 2.048-15.36 9.216-17.408zM848.896 597.504c2.048-1.024 62.464-21.504 84.992-107.52 2.048-7.168 9.216-12.288 17.408-10.24 7.168 2.048 12.288 9.216 10.24 17.408-26.624 101.376-100.352 125.952-103.424 126.976-8.192 2.048-16.384-2.048-18.432-9.216s1.024-15.36 9.216-17.408zM207.872 566.784c7.168-2.048 15.36 1.024 17.408 8.192 21.504 60.416 55.296 107.52 100.352 138.24 33.792 22.528 61.44 27.648 62.464 28.672 7.168 1.024 12.288 8.192 11.264 16.384-1.024 7.168-8.192 12.288-16.384 11.264-1.024 0-32.768-6.144-71.68-31.744-34.816-23.552-82.944-69.632-112.64-152.576-2.048-8.192 2.048-16.384 9.216-18.432zM176.128 662.016c7.168-2.048 15.36 1.024 17.408 8.192 29.696 83.968 90.112 100.352 93.184 100.352 7.168 2.048 12.288 9.216 10.24 16.384s-9.216 12.288-16.384 10.24c-3.072-1.024-78.848-19.456-112.64-118.784-3.072-6.144 1.024-14.336 8.192-16.384zM819.2 728.576v24.576h-114.688v89.088h-75.776v-51.2h-25.6v76.8h-101.376v-236.544h-114.688v-79.872c-145.408-70.656-205.824-244.736-135.168-390.144s244.736-205.824 390.144-136.192 205.824 244.736 136.192 390.144c-28.672 59.392-76.8 107.52-136.192 136.192v79.872h-114.688v210.944h51.2v-75.776h75.776v51.2h25.6v-89.088h139.264zM539.648 439.808v-135.168c0-9.216 4.096-17.408 11.264-23.552l82.944-56.32c8.192-5.12 11.264-14.336 11.264-22.528 0-5.12-1.024-10.24-5.12-15.36-8.192-12.288-25.6-15.36-37.888-7.168l-106.496 72.704c-8.192 5.12-12.288 13.312-12.288 22.528v164.864c0 8.192 3.072 14.336 8.192 19.456s12.288 8.192 19.456 8.192c16.384 0 28.672-12.288 28.672-27.648z" />
<glyph unicode="&#xe917;" glyph-name="start-chat" horiz-adv-x="1022" d="M29 447.4c-0.6-109.8 36.8-215.8 105.8-301.2l-71.2-167c-2.8-7.2-2.4-15 2.2-21.6s11.6-10.4 19.4-10.4c1 0 2.6 0 3.8 0l260.4 45.8c51.8-18.8 106.4-28.2 161.6-28.2 265.8 0 482 216.2 482 482s-216.2 482-482 482-482-216.2-482-481.4zM75.4 446.2c0 240.4 195.6 436 436 436s436.2-195.8 436.2-436.2-195.8-436.2-436.2-436.2c-51.4 0.6-102.6 9.4-151.2 27.6-2.6 0.6-5.4 1.2-8.2 1.2-1 0-2.6 0-3.8 0l-225-39.2 60.2 141.2c3.4 7.8 1.8 17.2-3.8 23.8-31.4 37-56.8 78.4-74.4 123.6-20 50-30.4 104.2-29.8 158.2zM756.2 576.4c0 16.6-13.4 30-30 30h-439.8c-16.6 0-30-13.4-30-30s13.4-30 30-30h439.8c16.6 0 30 13.4 30 30zM286.4 413.6h439.8c16.6 0 30 13.4 30 30s-13.4 30-30 30h-439.8c-16.6 0-30-13.4-30-30 0-16.4 13.4-30 30-30zM260 311c0-16.6 13.4-30 30-30h156.2c16.6 0 30 13.4 30 30s-13.4 30-30 30h-156.2c-16.6 0-30-13.6-30-30z" />
<glyph unicode="&#xe918;" glyph-name="stop-chat" horiz-adv-x="1022" d="M691 255.2c11.8 11.6 11.8 30.6 0 42.4l-311 310.8c-11.6 11.8-30.6 11.8-42.4 0-11.8-11.6-11.8-30.6 0-42.4l311-311c11.8-11.6 30.8-11.6 42.4 0.2zM380 255l311 311c11.8 11.6 11.8 30.6 0 42.4-11.6 11.8-30.6 11.8-42.4 0l-311-311c-11.8-11.6-11.8-30.6 0-42.4 11.8-11.6 30.8-11.6 42.4 0zM29 443.4c-0.6-109.8 36.8-215.8 105.8-301.2l-71.2-167c-2.8-7.2-2.2-15 2.2-21.6 4.6-6.6 11.6-10.4 19.4-10.4 1 0 2.6 0 3.8 0l260.4 45.8c51.8-18.8 106.4-28.2 161.6-28.2 265.8 0 482 216.2 482 482s-216.2 482-482 482-482-216.2-482-481.4zM75.4 442.2c0 240.6 195.6 436 436 436s436.2-195.8 436.2-436.2-195.8-436.2-436.2-436.2c-51.4 0.6-102.6 9.4-151.2 27.6-2.6 0.6-5.4 1.2-8.2 1.2-1 0-2.6 0-3.8 0l-225-39.2 60.2 141.2c3.4 7.8 1.8 17.2-3.8 23.8-31.4 37-56.8 78.4-74.4 123.6-20 50.2-30.4 104.2-29.8 158.2z" />
<glyph unicode="&#xe919;" glyph-name="time" d="M512 960c-282.317 0-512-229.683-512-512s229.683-512 512-512 512 229.683 512 512-229.683 512-512 512zM512-29.867c-263.492 0-477.867 214.374-477.867 477.867s214.374 477.867 477.867 477.867 477.867-214.374 477.867-477.867-214.374-477.867-477.867-477.867zM512 857.6c-9.421 0-17.067-7.629-17.067-17.067v-392.533h-256c-9.421 0-17.067-7.629-17.067-17.067s7.646-17.067 17.067-17.067h273.067c9.421 0 17.067 7.629 17.067 17.067v409.6c0 9.438-7.646 17.067-17.067 17.067z" />
<glyph unicode="&#xe91a;" glyph-name="twitter" d="M445.235 85.504c-133.939 0-240.026 23.347-290.406 63.898l-1.229 0.41-1.229 1.229c-12.288 12.288-15.974 27.853-10.65 43.418l0.41 1.229c6.554 15.565 21.299 26.214 38.502 26.214 33.997 0.41 63.898 4.915 91.341 12.698-43.418 20.48-73.728 54.886-91.341 105.677-5.734 15.974-1.229 33.178 12.698 43.827 3.277 2.867 7.373 4.096 11.059 5.734-24.166 27.853-41.779 59.392-51.61 92.979l-0.41 1.229v0.819c-3.277 17.203 4.096 33.997 18.022 41.779 5.734 3.277 12.288 4.915 18.842 5.325-6.963 15.155-11.878 29.901-15.155 45.056-8.192 42.189-1.638 84.378 20.48 125.338l4.915 10.24c3.686 8.192 11.878 13.517 20.48 15.155s17.613-1.638 24.166-8.192l9.011-9.011c71.68-75.366 135.578-110.592 246.579-135.168 4.915 42.598 23.347 82.33 52.838 113.050 35.226 36.864 82.739 57.754 133.12 58.573h0.41c36.864 0 82.33-20.89 110.182-35.635 23.347 7.373 52.429 19.661 81.92 32.768 13.926 6.554 31.13 3.686 41.779-7.373 10.65-10.65 13.517-25.805 8.192-40.141-2.048-5.734-4.915-11.878-7.373-17.613 4.096-1.638 7.373-4.096 10.65-7.373 9.421-9.421 13.517-24.166 10.24-38.093l-1.229-1.229c-11.059-36.454-33.178-66.355-61.85-84.787-4.506-255.181-196.608-462.029-433.357-462.029v0zM199.885 175.616c47.514-27.443 138.854-43.418 245.35-43.418 102.4 0 199.066 43.827 272.384 124.109 73.728 80.691 114.278 187.597 114.278 301.466v0.819c0 10.24 5.734 19.661 15.155 24.576 18.842 9.421 33.587 26.624 43.418 47.923-10.24-1.638-20.48 2.867-26.624 10.65-7.373 9.421-7.373 22.938 0 32.768 3.686 5.325 7.373 10.65 10.65 16.384-25.805-10.65-49.562-20.48-70.861-26.624-7.373-2.048-15.974-1.638-22.938 2.867-37.274 20.89-72.090 33.178-93.389 33.587-77.414-1.229-140.902-67.174-140.902-147.866 0-8.602-3.686-15.974-10.24-21.299s-15.155-7.373-22.938-5.734c-127.795 24.986-203.571 63.078-282.214 142.131-11.059-27.443-14.336-54.477-9.011-81.101 5.325-27.443 19.251-54.477 40.55-79.053 8.192-9.011 9.011-22.528 2.867-33.178-6.554-10.65-18.842-15.565-30.31-12.288-9.011 2.867-17.613 5.734-25.805 10.24 16.384-35.635 45.056-68.813 80.282-93.389 10.24-6.963 14.336-20.48 10.65-31.949-4.096-11.878-15.565-19.251-28.262-18.842-13.926 1.229-25.805 3.686-36.864 8.192 19.661-40.55 51.61-63.078 100.762-71.68 11.878-2.048 20.89-11.059 22.528-22.938s-3.686-23.347-14.336-28.672c-43.008-22.528-88.474-34.406-144.179-37.683v0z" />
</font>
</defs>
</svg>
