<?xml version="1.0" encoding="utf-8"?>
<!-- Generator: Adobe Illustrator 19.0.0, SVG Export Plug-In . SVG Version: 6.00 Build 0)  -->
<svg version="1.1" id="Layer_1" xmlns="http://www.w3.org/2000/svg" xmlns:xlink="http://www.w3.org/1999/xlink" x="0px" y="0px"
	 viewBox="75 -75 250 250" style="enable-background:new 75 -75 250 250;" xml:space="preserve">
<g id="XMLID_4_">
	<path id="XMLID_35_" d="M278.6,148.4c-0.8-0.8-1.8-1.2-2.9-1.2c-1,0-2.2,0.4-2.9,1.2c-0.8,0.8-1.2,1.8-1.2,2.9c0,1,0.4,2.2,1.2,2.9
		c0.8,0.8,1.8,1.2,2.9,1.2c1,0,2.2-0.4,2.9-1.2c0.8-0.8,1.2-1.8,1.2-2.9C279.8,150.2,279.4,149.2,278.6,148.4L278.6,148.4z"/>
	<path id="XMLID_32_" d="M200.2-55c-43.7,0-79.4,35.4-79.6,79.1L97.7,77.6c-0.5,1.3-0.4,2.7,0.4,3.9c0.8,1.2,2.1,1.8,3.4,1.8h26.7
		v19.3c0,13.5,10.9,24.4,24.4,24.4h13.9c4.3,0,7.8,3.5,7.8,7.8v16.5c0,2.2,1.8,4.2,4.2,4.2c2.2,0,4.2-1.8,4.2-4.2v-16.5
		c0-8.8-7.1-16.1-16.1-16.1h-13.9c-9,0-16.1-7.3-16.1-16.1V79.1c0-2.2-1.8-4.2-4.2-4.2h-24.6l20.8-48.5c0.3-0.5,0.4-1,0.4-1.6v-0.4
		c0-39.3,32-71.3,71.3-71.3s71.3,32,71.3,71.3v110.3c0,2.2,1.8,4.2,4.2,4.2s4.2-1.8,4.2-4.2V24.5C279.8-19.3,244.1-55,200.2-55
		L200.2-55z"/>
	<path id="XMLID_27_" d="M216.9-15.3h-0.3c-2.3-0.1-4.3,1.6-4.4,3.8s1.6,4.3,3.8,4.4h0.3c0.1,0,0.3,0,0.3,0c2.1,0,3.9-1.7,4.2-3.8
		C220.8-13.2,219.1-15.2,216.9-15.3L216.9-15.3z"/>
	<path id="XMLID_24_" d="M250.2,18.3c-0.9-12.7-8.6-24.1-19.8-29.8c-2.1-1-4.5-0.3-5.6,1.8c-1,2.1-0.3,4.5,1.8,5.6
		c8.8,4.4,14.8,13.2,15.4,23.1c0.5,6.7-1.6,13.5-5.6,18.9c-3.8,4.9-9.2,8.6-15.2,10.1c-1.8,0.5-3.1,2.1-3.1,4v16.5
		c0,2.2-1.8,4.2-4.2,4.2c-2.2,0-4.2-1.8-4.2-4.2V50.7c0-5.1,3.5-9.3,8.4-10.5c9.6-2.2,16.1-10.9,15.4-20.8
		c-0.6-9.7-8.6-17.6-18.3-18.3c-5.6-0.4-10.9,1.4-14.9,5.3c-4,3.8-6.4,9-6.4,14.5c0,2.2-1.8,4.2-4.2,4.2c-2.2,0-4.2-1.8-4.2-4.2
		c0-7.8,3.2-15.2,9-20.5c2.6-2.3,5.4-4.3,8.6-5.4c2.1-0.9,3.1-3.2,2.2-5.3s-3.2-3.1-5.3-2.2c-4,1.7-7.8,4-11.2,7.1
		c-7.3,6.9-11.5,16.5-11.5,26.5c0,6.7,5.6,12.3,12.3,12.3c6.7,0,12.3-5.6,12.3-12.3c0-3.2,1.3-6.2,3.6-8.4s5.4-3.4,8.7-3.1
		c5.7,0.4,10.4,5.1,10.8,10.8c0.4,5.8-3.4,10.9-9,12.2c-8.8,1.9-14.9,9.6-14.9,18.5v17.8c0,6.7,5.6,12.3,12.3,12.3
		c6.7,0,12.3-5.6,12.3-12.3V55.4c6.5-2.3,12.3-6.6,16.6-12.2C248.3,35.7,250.9,27,250.2,18.3L250.2,18.3z"/>
	<path id="XMLID_20_" d="M214,86.4c-6.7,0-12.3,5.6-12.3,12.3c0,6.7,5.6,12.3,12.3,12.3c6.7,0,12.3-5.6,12.3-12.3
		C226.4,91.8,220.9,86.4,214,86.4L214,86.4z M214,102.7c-2.2,0-4.2-1.8-4.2-4.2c0-2.2,1.8-4.2,4.2-4.2c2.2,0,4.2,1.8,4.2,4.2
		C218.2,100.9,216.4,102.7,214,102.7L214,102.7z"/>
</g>
</svg>
