<?xml version="1.0" encoding="utf-8"?>
<!-- Generator: Adobe Illustrator 19.0.0, SVG Export Plug-In . SVG Version: 6.00 Build 0)  -->
<svg version="1.1" id="Layer_1" xmlns="http://www.w3.org/2000/svg" xmlns:xlink="http://www.w3.org/1999/xlink" x="0px" y="0px"
	 viewBox="206 -206 511 512" style="enable-background:new 206 -206 511 512;" xml:space="preserve">
<path id="XMLID_2_" d="M306.1,254.6l359.8-359.8c13.7-13.7,13.7-35.6,0-49.1c-13.7-13.7-35.6-13.7-49.1,0L257.1,205.3
	c-13.7,13.7-13.7,35.6,0,49.1C270.5,268,292.5,268,306.1,254.6z"/>
<path id="XMLID_1_" d="M665.9,254.6c13.7-13.7,13.7-35.6,0-49.1L306.2-154.4c-13.7-13.7-35.6-13.7-49.1,0
	c-13.7,13.7-13.7,35.6,0,49.1l360,359.8C630.5,268,652.5,268,665.9,254.6z"/>
</svg>
