<?xml version="1.0" encoding="utf-8"?>
<!-- Generator: Adobe Illustrator 19.0.0, SVG Export Plug-In . SVG Version: 6.00 Build 0)  -->
<svg version="1.1" id="Layer_1" xmlns="http://www.w3.org/2000/svg" xmlns:xlink="http://www.w3.org/1999/xlink" x="0px" y="0px"
	 viewBox="206 -206 511 512" style="enable-background:new 206 -206 511 512;" xml:space="preserve">
<style type="text/css">
	.st0{fill:#FFFFFF;}
	.st1{fill:none;}
	.st2{fill:#403D51;}
</style>
<path class="st0" d="M244.2,50.5c0-120.2,97.8-218,218-218S680.3-69.6,680.3,50.6s-97.9,218.1-218.1,218.1
	c-25.7-0.3-51.3-4.7-75.6-13.8c-1.3-0.3-2.7-0.6-4.1-0.6c-0.5,0-1.3,0-1.9,0l-112.5,19.6l30.1-70.6c1.7-3.9,0.9-8.6-1.9-11.9
	c-15.7-18.5-28.4-39.2-37.2-61.8C249.1,104.6,243.9,77.5,244.2,50.5z"/>
<g>
	<path class="st1" d="M244.2,50.5c0-120.2,97.8-218,218-218S680.3-69.6,680.3,50.6s-97.9,218.1-218.1,218.1
		c-25.7-0.3-51.3-4.7-75.6-13.8c-1.3-0.3-2.7-0.6-4.1-0.6c-0.5,0-1.3,0-1.9,0l-112.5,19.6l30.1-70.6c1.7-3.9,0.9-8.6-1.9-11.9
		c-15.7-18.5-28.4-39.2-37.2-61.8C249.1,104.6,243.9,77.5,244.2,50.5z"/>
	<path class="st2" d="M221,49.9c-0.3,54.9,18.4,107.9,52.9,150.6L238.3,284c-1.4,3.6-1.2,7.5,1.1,10.8s5.8,5.2,9.7,5.2
		c0.5,0,1.3,0,1.9,0l130.2-22.9c25.9,9.4,53.2,14.1,80.8,14.1c132.9,0,241-108.1,241-241s-108.1-241-241-241S221-82.7,221,49.9z
		 M244.2,50.5c0-120.2,97.8-218,218-218S680.3-69.6,680.3,50.6s-97.9,218.1-218.1,218.1c-25.7-0.3-51.3-4.7-75.6-13.8
		c-1.3-0.3-2.7-0.6-4.1-0.6c-0.5,0-1.3,0-1.9,0l-112.5,19.6l30.1-70.6c1.7-3.9,0.9-8.6-1.9-11.9c-15.7-18.5-28.4-39.2-37.2-61.8
		C249.1,104.6,243.9,77.5,244.2,50.5z"/>
	<path class="st2" d="M584.6-14.6c0-8.3-6.7-15-15-15H349.7c-8.3,0-15,6.7-15,15s6.7,15,15,15h219.9C577.9,0.4,584.6-6.3,584.6-14.6
		z"/>
	<path class="st2" d="M349.7,66.8h219.9c8.3,0,15-6.7,15-15s-6.7-15-15-15H349.7c-8.3,0-15,6.7-15,15
		C334.7,60,341.4,66.8,349.7,66.8z"/>
	<path class="st2" d="M336.5,118.1c0,8.3,6.7,15,15,15h78.1c8.3,0,15-6.7,15-15s-6.7-15-15-15h-78.1
		C343.2,103.1,336.5,109.9,336.5,118.1z"/>
</g>
</svg>
